<?xml version="1.0" standalone="no"?><!DOCTYPE svg PUBLIC "-//W3C//DTD SVG 1.1//EN" "http://www.w3.org/Graphics/SVG/1.1/DTD/svg11.dtd"><svg t="1637064598881" class="icon" viewBox="0 0 1024 1024" version="1.1" xmlns="http://www.w3.org/2000/svg" p-id="1538" xmlns:xlink="http://www.w3.org/1999/xlink" width="200" height="200"><defs><style type="text/css"></style></defs><path d="M511.999959 464.455014m-448.014129 0a448.014129 448.014129 0 1 0 896.028258 0 448.014129 448.014129 0 1 0-896.028258 0Z" fill="#FFE585" p-id="1539"></path><path d="M412.803876 1024h197.290626a16.440885 16.440885 0 0 0 0-32.881771h-197.290626a16.440885 16.440885 0 0 0 0 32.881771z" fill="#6E6E96" opacity=".29" p-id="1540"></path><path d="M683.527717 1024h57.543099a16.440885 16.440885 0 0 0 0-32.881771h-57.543099a16.440885 16.440885 0 0 0 0 32.881771zM334.158901 991.118229h-45.212435a16.440885 16.440885 0 0 0 0 32.881771h45.212435a16.440885 16.440885 0 0 0 0-32.881771z" fill="#6E6E96" opacity=".17" p-id="1541"></path><path d="M522.555007 24.443486c-4.217087 0-8.421844 0.069874-12.610159 0.18496 223.698798 6.374953 403.081189 189.707267 403.081189 414.947398 0 229.272258-185.8601 415.132358-415.132358 415.132358s-415.132358-185.8601-415.132358-415.132358c0-36.112405 4.619889-71.143822 13.284236-104.54759a447.586666 447.586666 0 0 0-21.504679 137.429361c0 247.431216 200.582913 448.014129 448.014129 448.014129s448.014129-200.582913 448.014129-448.014129-200.578803-448.014129-448.014129-448.014129z" fill="#FF9900" opacity=".24" p-id="1542"></path><path d="M100.977822 487.061232C100.977822 252.112758 291.43726 61.65332 526.385734 61.65332c229.851799 0 417.092934 182.300648 425.107865 410.187762 0.18085-5.182989 0.300046-10.378309 0.300046-15.60651C951.793645 208.807466 751.210732 8.220443 503.779516 8.220443S55.765387 208.807466 55.765387 456.234572c0 205.967303 138.999466 379.447416 328.308042 431.819856C219.117915 829.500215 100.977822 672.095177 100.977822 487.061232z" fill="#FFEFB5" p-id="1543"></path><path d="M430.995716 40.465129A435.617701 435.617701 0 0 1 511.999959 32.881771c193.977787 0 365.172617 130.511859 416.307881 317.383073A432.567917 432.567917 0 0 1 943.573202 464.455014c0 115.279379-44.891838 223.653585-126.405748 305.167496S627.279338 896.028258 511.999959 896.028258c-115.275268 0-223.657696-44.891838-305.167496-126.405748C125.318553 688.1086 80.426715 579.734393 80.426715 464.455014c0-65.225103 14.180264-127.885428 42.1421-186.24646a432.872073 432.872073 0 0 1 26.420503-47.263436 16.440885 16.440885 0 1 0-27.637128-17.813699 465.433247 465.433247 0 0 0-28.438622 50.868099C62.810307 326.828362 47.544945 394.272985 47.544945 464.455014c0 124.062922 48.311542 240.698673 136.035996 328.419018S387.937037 928.910029 511.999959 928.910029s240.698673-48.311542 328.419018-136.035997S976.454973 588.513826 976.454973 464.455014a465.688081 465.688081 0 0 0-16.428555-122.870957C904.986444 140.466815 720.753992 0 511.999959 0c-29.285327 0-58.603536 2.745628-87.136693 8.1629a16.440885 16.440885 0 0 0 6.13245 32.302229z" fill="#6E6E96" p-id="1544"></path><path d="M219.57826 452.979276c-4.151324 144.248219 70.432753 270.925241 191.211608 304.941434 120.782965 34.012082 250.501551-35.121842 322.245465-160.331515L219.57826 452.979276z" fill="#C7A17B" p-id="1545"></path><path d="M203.141485 452.506601c-4.504803 156.644646 77.148855 285.742589 203.188793 321.242571 126.035828 35.491761 263.058278-32.014514 340.971634-167.984747a16.453216 16.453216 0 0 0-9.811099-23.999583L224.03374 437.154924a16.440885 16.440885 0 0 0-20.892255 15.351677z m515.63138 136.911474c-70.280675 122.657226-192.255604 184.014611-303.523407 152.678282-111.271913-31.340438-183.299432-147.339105-179.234423-288.644405a16.453216 16.453216 0 0 1-20.892255 15.351677l513.461184 144.614028a16.440885 16.440885 0 0 1-9.811099-23.999582z" fill="#6E6E96" p-id="1546"></path><path d="M437.909109 641.621996c-60.966914-17.168395-121.103562-15.063961-168.96298 2.198969 30.481402 54.653614 77.568098 95.550316 136.738844 112.221373 59.174857 16.666948 120.68432 6.350292 175.198186-24.361282-31.809003-39.708849-82.003026-72.890666-142.97405-90.05906z" fill="#FF8CA4" p-id="1547"></path><path d="M442.364589 625.797644c-62.253413-17.530094-125.826207-16.621735-178.996031 2.560668a16.440885 16.440885 0 0 0-8.779433 23.473474c33.592839 60.231184 85.669344 102.85829 146.636258 120.039015 60.971024 17.172505 127.642925 7.98616 187.72203-25.861513a16.440885 16.440885 0 0 0 4.763747-24.607895c-35.343794-44.123226-89.093158-78.077765-151.346571-95.603749z m130.450205 91.559291c-53.169824 29.951183-109.422313 37.859249-162.674341 22.861051-53.252028-14.998198-97.10809-51.102382-126.837321-104.399622a16.428555 16.428555 0 0 1-8.779433 23.473474c46.774319-16.872459 103.215879-17.530094 158.92993-1.837269 55.70172 15.680495 103.503594 45.697441 134.597419 84.514372a16.453216 16.453216 0 0 1 4.763746-24.612006z" fill="#6E6E96" p-id="1548"></path><path d="M222.985633 516.708259l473.883862 133.471218a388.198077 388.198077 0 0 0 36.165838-52.590282L219.57826 452.979276a387.643197 387.643197 0 0 0 3.407373 63.728983z" fill="#FFFFFF" p-id="1549"></path><path d="M218.530153 532.532611l473.887973 133.471218a16.444996 16.444996 0 0 0 17.188946-5.421382 406.155634 406.155634 0 0 0 37.69895-54.818022 16.453216 16.453216 0 0 0-9.811099-24.003693L224.03374 437.154924a16.444996 16.444996 0 0 0-20.892255 15.355787 405.600755 405.600755 0 0 0 3.555341 66.433508 16.440885 16.440885 0 0 0 11.833327 13.588392z m-3.407373-63.728982l513.461184 144.609918a16.440885 16.440885 0 0 1-9.811099-24.003693 372.961487 372.961487 0 0 1-34.632725 50.362542 16.440885 16.440885 0 0 1 17.188946-5.421381L227.445224 500.883906a16.432665 16.432665 0 0 1 11.829217 13.588392 372.114781 372.114781 0 0 1-3.259406-61.024456 16.440885 16.440885 0 0 1-20.892255 15.355787z" fill="#6E6E96" p-id="1550"></path><path d="M222.985633 516.708259s21.607434 182.530821 169.024634 232.737174c147.413089 50.206354 298.636354-101.016911 298.636353-101.01691l-467.660987-131.720264z m170.8208 197.212531c-105.073699-31.147258-119.414261-140.684657-119.414261-140.684657l333.507472 82.298962c0 0.00822-109.015401 89.528842-214.093211 58.385695z" fill="#6E6E96" opacity=".15" p-id="1551"></path><path d="M399.227815 64.419499c-23.506356-7.98205-47.756662-4.689763-68.542051 7.028479-7.492934-20.514115-22.65965-38.019548-43.753307-45.183663-39.092315-13.280125-83.684107 13.92954-96.495667 51.636711C157.526248 174.754282 262.312231 278.837417 262.312231 278.837417l2.868935-5.94749-0.813824 6.650338s147.014398-18.537098 179.92083-115.390354c12.81156-37.707171-5.972152-86.450286-45.060357-99.730412z" fill="#FF94B3" p-id="1552"></path><path d="M404.51767 48.849981c-27.053477-9.186345-56.141514-6.251647-81.904381 8.273876a16.436775 16.436775 0 0 1 23.518687 8.680787C336.37431 39.104646 316.727452 19.017994 292.222312 10.694796 270.976578 3.477247 247.25649 5.421382 225.439435 16.173721c-23.966701 11.812776-42.396933 32.380324-50.568053 56.433339C139.071354 177.972585 246.150841 285.956321 250.729628 290.498115a16.440885 16.440885 0 0 0 26.391731-4.521243l2.868934-5.94749a16.444996 16.444996 0 0 1-31.126706-9.141133l-0.813824 6.650339a16.440885 16.440885 0 0 0 18.3768 18.311036c6.420166-0.809714 157.626989-21.036113 193.431128-126.413969 8.17112-24.053015 6.087238-51.591499-5.721428-75.558199-10.752339-21.817055-28.372858-37.805816-49.618593-45.027475z m24.200984 110.010075C399.462098 244.981524 263.676825 263.054167 262.308121 263.226797a16.453216 16.453216 0 0 1 18.3768 18.311036l0.813824-6.650338a16.440885 16.440885 0 0 0-31.126707-9.141133l-2.868934 5.947491a16.428555 16.428555 0 0 1 26.391731-4.521244c-0.961792-0.961792-97.075208-98.106874-67.896747-183.985839 5.310406-15.627062 18.00688-29.651137 33.97098-37.5181 13.937761-6.86818 28.738668-8.232773 41.669424-3.838947 15.03108 5.104895 27.279539 17.957557 33.59695 35.257479a16.453216 16.453216 0 0 0 23.518686 8.680787c17.505433-9.868641 37.102968-11.919642 55.179722-5.783081 12.930756 4.389716 23.831063 14.48853 30.699244 28.426291 7.871074 15.9641 9.395966 34.821795 4.08556 50.448857z" fill="#6E6E96" p-id="1553"></path><path d="M854.882846 114.527208c-33.087282-10.386529-66.84864-4.998029-95.496884 12.042949-11.126369-28.40985-32.881771-52.356-62.57812-61.686203-55.031754-17.279371-116.42613 22.174644-133.097188 75.258154-42.812066 136.340153 106.919188 278.307199 106.919188 278.307199l3.814286-8.405403-0.933021 9.309651s204.734236-30.654031 247.554523-166.994184c16.662837-53.083509-11.151031-120.548682-66.182784-137.832163z" fill="#FF94B3" p-id="1554"></path><path d="M859.806891 98.842603c-36.280924-11.389423-74.929336-6.564024-108.830441 13.596613a16.453216 16.453216 0 0 1 23.715977 8.134128c-13.752801-35.113621-40.341823-61.131322-72.956429-71.373994-61.435479-19.293379-133.265707 20.900476-153.709949 86.014602-45.364513 144.470171 104.876408 289.080089 111.292464 295.163217a16.440885 16.440885 0 0 0 26.284866-5.137777l3.814285-8.405402a16.440885 16.440885 0 0 1-31.332217-8.430064l-0.933021 9.309651a16.449106 16.449106 0 0 0 18.800153 17.895904c8.775323-1.315271 215.420812-33.839453 260.801766-178.326064 20.436021-65.110017-15.516086-139.147434-76.947454-158.440814z m45.570024 148.584503C866.177734 372.242198 673.013771 402.797584 671.065526 403.089409a16.428555 16.428555 0 0 1 18.808373 17.895904l0.93302-9.309651a16.444996 16.444996 0 0 0-31.332217-8.430064l-3.814286 8.405402a16.432665 16.432665 0 0 1 26.284866-5.137776c-1.413916-1.344042-141.740984-136.619648-102.541803-261.451181 13.465085-42.89016 64.43594-79.582106 112.484428-64.493484 23.062452 7.24632 42.088667 26.198551 52.191591 51.9943a16.436775 16.436775 0 0 0 23.715977 8.134129c25.750537-15.314685 54.928998-19.038545 82.167436-10.485175 48.040267 15.092733 68.87909 74.333353 55.414004 117.215293z" fill="#6E6E96" p-id="1555"></path><path d="M623.24721 666.464174s222.650691 217.944488 67.559709 258.483601c-155.086873 40.530893-67.559709-258.483601-67.559709-258.483601z" fill="#89E0F5" p-id="1556"></path><path d="M611.750921 678.215297c-0.00411 0 0 0 0 0 37.267377 36.515207 130.770803 143.401513 116.064431 198.745644-4.097891 15.421551-17.562976 25.914946-41.167977 32.084388s-40.48157 3.604664-51.599719-7.842303c-35.483541-36.527537-16.387453-160.532916 3.978694-230.110743a16.436775 16.436775 0 0 1-27.275429 7.123014z m83.215542 262.639035c35.582186-9.301431 57.329368-27.965946 64.633231-55.467437 22.215746-83.667666-109.72647-215.872936-124.847974-230.669734-4.126662-4.036237-10.070042-5.618673-15.659943-4.159544s-10.000169 5.741979-11.619596 11.286668c-5.94338 20.304494-56.326474 200.16367 3.991025 262.265005 19.823598 20.411359 47.916961 26.046473 83.503257 16.745042z" fill="#6E6E96" p-id="1557"></path><path d="M733.697079 106.232781a116.911137 116.911137 0 0 1 11.936083-6.185883c-11.977185-19.527662-29.663468-35.171164-51.916206-42.557232 18.3768 10.95785 32.088498 28.615361 39.980123 48.743115z m116.730287 0.419243a116.512445 116.512445 0 0 0-9.991948-2.614101c37.563313 23.555679 54.879676 75.525318 41.648873 117.646866-39.306047 125.131579-227.208927 153.274265-227.208927 153.274265l0.850816-8.54515-3.497799 7.714886s-73.050964-69.286002-97.395805-155.329376c18.668625 103.877625 111.341787 191.774708 111.341786 191.774708l3.814286-8.405402-0.93302 9.309651s204.734236-30.654031 247.554522-166.994184c16.662837-53.083509-11.151031-120.548682-66.182784-137.832163z" fill="#6E6E96" opacity=".15" p-id="1558"></path><path d="M306.168293 62.828844a83.067574 83.067574 0 0 1 8.253325-4.27463c-8.277986-13.497967-20.501784-24.307849-35.882233-29.416855 12.700584 7.575138 22.178754 19.778385 27.628908 33.691485z m80.683646 0.287715a79.812278 79.812278 0 0 0-6.905172-1.804387c25.960158 16.284697 37.929123 52.195701 28.78388 81.308399-27.164453 86.487278-157.035118 105.932735-157.035117 105.932735l0.587761-5.906388-2.41681 5.330957s-50.489959-47.884079-67.317205-107.358982c12.901985 71.805567 76.955675 132.546419 76.955674 132.546419l2.634652-5.811853-0.641194 6.432496S402.996888 252.597764 432.590482 158.366829c11.52095-36.679615-7.706665-83.305967-45.738543-95.25027z" fill="#6E6E96" opacity=".15" p-id="1559"></path></svg>