<?xml version="1.0" standalone="no"?><!DOCTYPE svg PUBLIC "-//W3C//DTD SVG 1.1//EN" "http://www.w3.org/Graphics/SVG/1.1/DTD/svg11.dtd"><svg t="1637064590937" class="icon" viewBox="0 0 1024 1024" version="1.1" xmlns="http://www.w3.org/2000/svg" p-id="1221" xmlns:xlink="http://www.w3.org/1999/xlink" width="200" height="200"><defs><style type="text/css"></style></defs><path d="M512 464.455014m-448.014129 0a448.014129 448.014129 0 1 0 896.028258 0 448.014129 448.014129 0 1 0-896.028258 0Z" fill="#FFE585" p-id="1222"></path><path d="M412.803918 1024h197.290625a16.440885 16.440885 0 0 0 0-32.881771h-197.290625a16.440885 16.440885 0 0 0 0 32.881771z" fill="#6E6E96" opacity=".29" p-id="1223"></path><path d="M683.527758 1024h57.543099a16.440885 16.440885 0 0 0 0-32.881771h-57.543099a16.440885 16.440885 0 0 0 0 32.881771zM334.158942 991.118229h-45.212435a16.440885 16.440885 0 0 0 0 32.881771h45.212435a16.440885 16.440885 0 0 0 0-32.881771z" fill="#6E6E96" opacity=".17" p-id="1224"></path><path d="M330.048721 316.487045m-36.991993 0a36.991992 36.991992 0 1 0 73.983985 0 36.991992 36.991992 0 1 0-73.983985 0Z" fill="#6E6E96" p-id="1225"></path><path d="M522.555048 24.443486c-4.217087 0-8.421844 0.078094-12.614269 0.193181 223.698798 6.374953 403.085299 189.699047 403.085299 414.939177 0 229.272258-185.8601 415.132358-415.132358 415.132358s-415.132358-185.8601-415.132358-415.132358c0-36.104184 4.619889-71.143822 13.284236-104.54759a447.586666 447.586666 0 0 0-21.504678 137.429361c0 247.431216 200.582913 448.014129 448.014128 448.014129s448.014129-200.582913 448.014129-448.014129-200.578803-448.014129-448.014129-448.014129z" fill="#FF9900" opacity=".24" p-id="1226"></path><path d="M690.375387 316.487045m-36.991992 0a36.991992 36.991992 0 1 0 73.983984 0 36.991992 36.991992 0 1 0-73.983984 0Z" fill="#6E6E96" p-id="1227"></path><path d="M254.535734 472.239774a71.402766 33.317454 0 1 0 142.805531 0 71.402766 33.317454 0 1 0-142.805531 0Z" fill="#FF0000" opacity=".18" p-id="1228"></path><path d="M612.737415 472.239774a71.398655 33.317454 0 1 0 142.797311 0 71.398655 33.317454 0 1 0-142.797311 0Z" fill="#FF0000" opacity=".18" p-id="1229"></path><path d="M302.37871 641.474028s-55.487988 26.716439 26.716439 67.818653 253.769177 75.57464 256.120224 136.192185l64.337295-19.355033s-69.573717-87.880643-158.02157-97.214956C403.083244 719.572344 322.929817 684.631352 302.37871 641.474028z" fill="#FF9900" opacity=".24" p-id="1230"></path><path d="M100.977863 487.061232C100.977863 252.112758 291.437301 61.65332 526.385775 61.65332c229.851799 0 417.092934 182.300648 425.107865 410.187762 0.18085-5.182989 0.300046-10.378309 0.300046-15.60651C951.793686 208.807466 751.210773 8.220443 503.779557 8.220443S55.765428 208.807466 55.765428 456.234572c0 205.959082 138.999466 379.439196 328.308042 431.819856C219.117956 829.500215 100.977863 672.095177 100.977863 487.061232z" fill="#FFEFB5" p-id="1231"></path><path d="M592.868605 888.46545A435.173797 435.173797 0 0 1 512 896.028258C274.030514 896.028258 80.426757 702.428611 80.426757 464.455014 80.426757 226.485528 274.030514 32.881771 512 32.881771s431.573243 193.603757 431.573243 431.573243c0 111.678825-42.495579 217.60334-119.660874 298.266434a16.436775 16.436775 0 1 0 23.76119 22.725414C930.720581 698.643097 976.455014 584.641997 976.455014 464.455014 976.455014 208.355341 768.103783 0 512 0S47.544986 208.355341 47.544986 464.455014s208.351231 464.455014 464.455014 464.455015c29.240115 0 58.509001-2.737407 86.992835-8.138239a16.436775 16.436775 0 0 0 13.091055-19.215284 16.440885 16.440885 0 0 0-19.215285-13.091056z" fill="#6E6E96" p-id="1232"></path><path d="M704.243274 637.836482c-37.87569 46.724996-109.109936 75.75549-185.901202 75.75549-78.653196 0-150.709487-30.062159-188.042628-78.460015a16.440885 16.440885 0 0 0-26.034142 20.082541c43.424489 56.285371 125.452177 91.255135 214.07677 91.255135 86.462617 0 167.4833-33.691485 211.446228-87.934076a16.440885 16.440885 0 1 0-25.545026-20.699075z" fill="#6E6E96" p-id="1233"></path><path d="M518.342072 730.036968s138.633656 26.288976 161.876958 161.881068c0 0 18.796042 37.563313 68.118699 8.499938 49.322656-29.055155 28.77155-195.605435-66.717114-219.128231 0 0-23.354278 48.747225-163.278543 48.747225z" fill="#FF8CA4" p-id="1234"></path><path d="M645.582194 752.450005s59.59821 35.121842 59.59821 96.590202 61.932816 1.911253 61.932816-68.920192c0 0 17.316363 130.388552-43.888944 130.388553-61.209417 0-49.417191-137.125205-204.890425-180.4716-155.469123-43.342284 0-8.413623 0-8.413623s143.824866-2.568888 163.282654-40.333602c0.00411 0 11.599045 58.648749-36.034311 71.160262z" fill="#6E6E96" opacity=".15" p-id="1235"></path><path d="M515.279957 746.186028l-0.036992-0.004111c5.211761 1.007004 127.795003 26.145118 148.769462 148.510519 0.271275 1.594766 0.776832 3.136099 1.500231 4.578786 1.007004 2.014008 10.481064 19.86059 32.454308 26.35063 17.669842 5.219981 37.419455 1.500231 58.710402-11.044165 26.987713-15.898336 39.454015-60.120208 31.75968-112.652947-7.79298-53.243808-39.425243-120.967925-102.887061-136.599097a16.440885 16.440885 0 0 0-18.75905 8.857527c0.17674-0.36581 0.275385-0.538439 0.275384-0.542549-0.230172 0.402802-24.492809 39.951352-148.72836 39.951351a16.440885 16.440885 0 0 0-3.058004 32.594056z m162.407176-48.932186c47.625135 11.730572 71.900102 66.28554 78.221623 109.438754 6.144781 41.96536-3.612885 72.311124-15.914777 79.557445-12.938977 7.62035-24.250306 10.337207-32.705031 7.838192-8.253325-2.441471-12.330664-9.46584-12.367656-9.531603 0.723399 1.446798 1.228956 2.988131 1.50023 4.578787-24.88739-145.156578-173.521215-174.968013-175.017336-175.255729a16.440885 16.440885 0 0 1-3.062114 32.594055c146.060826 0 175.255729-52.138158 178.104112-58.081538a16.440885 16.440885 0 0 1-18.759051 8.861637z" fill="#6E6E96" p-id="1236"></path></svg>