<?xml version="1.0" standalone="no"?><!DOCTYPE svg PUBLIC "-//W3C//DTD SVG 1.1//EN" "http://www.w3.org/Graphics/SVG/1.1/DTD/svg11.dtd"><svg t="1637064594919" class="icon" viewBox="0 0 1024 1024" version="1.1" xmlns="http://www.w3.org/2000/svg" p-id="1375" xmlns:xlink="http://www.w3.org/1999/xlink" width="200" height="200"><defs><style type="text/css"></style></defs><path d="M536.953054 464.45726m-448.012331 0a448.012331 448.012331 0 1 0 896.024661 0 448.012331 448.012331 0 1 0-896.024661 0Z" fill="#FFE585" p-id="1376"></path><path d="M547.50806 24.447499c-4.21296 0-8.42181 0.069873-12.605998 0.184959 223.6979 6.374928 403.075461 189.706506 403.07546 414.945732 0 229.271338-185.859354 415.130692-415.130691 415.130692-229.267228 0-415.130692-185.859354-415.130692-415.130692 0-36.11226 4.61987-71.143536 13.284182-104.547171a447.461563 447.461563 0 0 0-21.504592 137.42881c0 247.430223 200.586218 448.012331 448.012331 448.012331 247.430223 0 448.012331-200.582108 448.01233-448.012331s-200.582108-448.012331-448.01233-448.01233z" fill="#FF9900" opacity=".24" p-id="1377"></path><path d="M437.757369 1024h197.289834a16.440819 16.440819 0 0 0 0-32.881639h-197.289834a16.440819 16.440819 0 0 0 0 32.881639z" fill="#6E6E96" opacity=".29" p-id="1378"></path><path d="M708.480123 1024h57.542868a16.440819 16.440819 0 0 0 0-32.881639h-57.542868a16.440819 16.440819 0 0 0 0 32.881639zM359.11271 991.118361h-45.212254a16.440819 16.440819 0 0 0 0 32.881639h45.212254a16.440819 16.440819 0 0 0 0-32.881639z" fill="#6E6E96" opacity=".17" p-id="1379"></path><path d="M125.932567 487.063387c0-234.947531 190.458673-425.406204 425.406204-425.406204 229.850877 0 417.091259 182.299917 425.106159 410.186115 0.180849-5.182968 0.300045-10.378267 0.300045-15.606447 0-247.426113-200.586218-448.012331-448.012331-448.012331-247.430223 0-448.012331 200.586218-448.012331 448.012331 0 205.966476 138.994798 379.445893 328.306724 431.818123-164.954852-58.553979-283.09447-215.958384-283.09447-400.991587z" fill="#FFEFB5" p-id="1380"></path><path d="M802.10237 804.987734c-76.371717 59.560979-168.062167 91.041038-265.149316 91.041037-217.240768 0-401.336844-162.291439-428.221694-377.505876a16.440819 16.440819 0 0 0-32.626807 4.077323C105.040396 754.234924 303.164601 928.91041 536.953054 928.91041c104.485518 0 203.167427-33.884529 285.371524-97.991394a16.440819 16.440819 0 1 0-20.222208-25.931282zM162.094149 250.438893C238.880997 116.244814 382.516216 32.885749 536.953054 32.885749c237.968531 0 431.571511 193.60298 431.571511 431.571511 0 25.598356-2.256502 51.241924-6.707854 76.219639a16.440819 16.440819 0 1 0 32.367863 5.774838 468.378396 468.378396 0 0 0 7.22163-81.990367c0-256.102755-208.350395-464.45315-464.45315-464.45315C370.75281 0.00411 216.180335 89.709331 133.556997 234.113159a16.440819 16.440819 0 1 0 28.537152 16.325734z" fill="#6E6E96" p-id="1381"></path><path d="M332.655321 196.706185l61.529767 74.859161a16.44904 16.44904 0 0 1 6.128315-25.512042l-92.49605 40.337551a16.440819 16.440819 0 1 0 13.148545 30.140132l92.49605-40.33755a16.440819 16.440819 0 0 0 6.128316-25.512042L358.060497 175.822234a16.440819 16.440819 0 0 0-25.405176 20.883951zM790.86918 294.044056l-91.550703 31.751333a16.44904 16.44904 0 0 0-8.084773 24.957164l57.847023 82.676771a16.440819 16.440819 0 1 0 26.938283-18.8494L718.171986 331.903153a16.440819 16.440819 0 0 1-8.084773 24.957164l91.550704-31.751332c8.577998-2.975788 13.119774-12.338835 10.148095-20.920943s-12.338835-13.119774-20.916832-10.143986z" fill="#6E6E96" p-id="1382"></path><path d="M193.977009 288.474729s-245.76148 63.679404-152.611907 155.246548c93.145463 91.563034 152.611907-155.246548 152.611907-155.246548z" fill="#89E0F5" p-id="1383"></path><path d="M189.854473 272.560015C172.990302 276.929163 24.558474 317.266714 5.865262 387.070323c-4.332156 16.181877-3.686854 41.180143 23.974825 68.373258s52.668165 27.410956 68.776058 22.799306c69.474793-19.885171 107.264016-168.982853 111.34545-185.916896a16.44493 16.44493 0 0 0-20.107122-19.765976z m-136.964357 159.434847c-19.802967-19.46593-16.387387-32.224006-15.265301-36.420525 10.398818-38.829105 103.951191-76.540235 160.474729-91.184895a16.440819 16.440819 0 0 1-20.107122-19.770086c-13.711643 56.77837-49.848565 150.976045-88.435168 162.011946-4.167748 1.19607-16.868281 4.829491-36.667138-14.63644z" fill="#6E6E96" p-id="1384"></path><path d="M881.240254 534.762315s222.645687 217.947723 67.555328 258.482563c-155.09036 40.53073-67.555327-258.482564-67.555328-258.482563z" fill="#89E0F5" p-id="1385"></path><path d="M869.739901 546.51339c-0.00411 0 0 0 0 0 37.263117 36.51506 130.770278 143.400938 116.059855 198.744846-4.097874 15.421489-17.562905 25.914842-41.167812 32.08426-23.604907 6.169418-40.485518 3.60465-51.603622-7.842271-35.479288-36.531501-16.383277-160.532272 3.986899-230.10982a16.436709 16.436709 0 0 1-27.27532 7.122985z m83.211098 262.637981c35.582044-9.301394 57.329137-27.961724 64.632971-55.463104 22.219768-83.66733-109.721919-215.87207-124.843362-230.672918-4.126646-4.036221-10.070002-5.61865-15.659881-4.159527s-10.000128 5.741956-11.619549 11.286622c-5.943356 20.304412-56.330358 200.158757 3.986899 262.259842 19.823518 20.415388 47.920879 26.050478 83.502922 16.749085z" fill="#6E6E96" p-id="1386"></path><path d="M244.532528 452.981568c-4.151307 144.24764 70.432471 270.924154 191.210841 304.94021 120.77837 34.011945 250.496436-35.121701 322.240062-160.330872L244.532528 452.981568z" fill="#C7A17B" p-id="1387"></path><path d="M228.095819 452.508895c-4.504785 156.644018 77.148545 285.745553 203.192088 321.241282 126.035322 35.491619 263.053112-32.014386 340.966155-167.984073a16.45315 16.45315 0 0 0-9.811059-23.999487L248.98799 437.15728a16.440819 16.440819 0 0 0-20.892171 15.351615z m515.625201 136.910924c-70.284503 122.656734-192.254833 184.013872-303.518079 152.67767-111.271466-31.336202-183.302806-147.334404-179.233703-288.643247a16.45315 16.45315 0 0 1-20.892172 15.351615l513.455013 144.613448a16.440819 16.440819 0 0 1-9.811059-23.999486z" fill="#6E6E96" p-id="1388"></path><path d="M462.862501 641.623531c-60.966669-17.168326-121.103076-15.063901-168.962302 2.19896 30.481279 54.653394 77.567786 95.549933 136.742406 112.220923 59.170509 16.666881 120.683835 6.350267 175.197482-24.361184-31.817096-39.708689-82.010918-72.890373-142.977586-90.058699z" fill="#FF8CA4" p-id="1389"></path><path d="M467.317963 625.799242c-62.253163-17.530024-125.821591-16.621668-178.999422 2.560658a16.440819 16.440819 0 0 0-8.779398 23.47338c33.592704 60.230942 85.669 102.857877 146.639779 120.038533 60.970779 17.172436 127.638302 7.986128 187.721277-25.861409a16.440819 16.440819 0 0 0 4.763728-24.607797c-35.347762-44.123049-89.101021-78.077452-151.345964-95.603365zM597.767645 717.358166c-53.17372 29.955173-109.421874 37.859097-162.673688 22.860959s-97.11181-51.102177-126.840923-104.399203a16.428489 16.428489 0 0 1-8.779397 23.47338c46.778242-16.872391 103.219575-17.525914 158.929292-1.837262 55.701496 15.680432 103.503179 45.697258 134.596878 84.514033a16.45315 16.45315 0 0 1 4.767838-24.611907z" fill="#6E6E96" p-id="1390"></path><path d="M247.939888 516.710295l473.88196 133.470682a387.448462 387.448462 0 0 0 36.165693-52.590071L244.532528 452.981568a386.741507 386.741507 0 0 0 3.40736 63.728727z" fill="#FFFFFF" p-id="1391"></path><path d="M243.480316 532.534584l473.88196 133.470682a16.44493 16.44493 0 0 0 17.184767-5.42136 404.838739 404.838739 0 0 0 37.702909-54.821913 16.45315 16.45315 0 0 0-9.811059-23.999486L248.98799 437.15728a16.44493 16.44493 0 0 0-20.892171 15.355725 404.497592 404.497592 0 0 0 3.555327 66.437351 16.440819 16.440819 0 0 0 11.82917 13.584228z m-3.40736-63.728727l513.455013 144.609338a16.440819 16.440819 0 0 1-9.811059-23.999486 372.516088 372.516088 0 0 1-34.628476 50.35823 16.440819 16.440819 0 0 1 17.184766-5.42136L252.39535 500.886006a16.436709 16.436709 0 0 1 11.82917 13.584227 370.843234 370.843234 0 0 1-3.259393-61.020101 16.440819 16.440819 0 0 1-20.892171 15.355725z" fill="#6E6E96" p-id="1392"></path><path d="M247.939888 516.710295s21.607347 182.530088 169.023955 232.73624c147.412498 50.206152 298.635155-101.016505 298.635155-101.016505l-467.65911-131.719735z m170.820115 197.21174c-105.073277-31.147132-119.417892-140.684092-119.417893-140.684093l333.510244 82.298632c0 0.00822-109.019074 89.528482-214.092351 58.385461z" fill="#6E6E96" opacity=".15" p-id="1393"></path></svg>