<?xml version="1.0" standalone="no"?><!DOCTYPE svg PUBLIC "-//W3C//DTD SVG 1.1//EN" "http://www.w3.org/Graphics/SVG/1.1/DTD/svg11.dtd"><svg t="1637064601101" class="icon" viewBox="0 0 1024 1024" version="1.1" xmlns="http://www.w3.org/2000/svg" p-id="1702" xmlns:xlink="http://www.w3.org/1999/xlink" width="200" height="200"><defs><style type="text/css"></style></defs><path d="M536.951209 464.498627m-447.979209 0a447.979209 447.979209 0 1 0 895.958418 0 447.979209 447.979209 0 1 0-895.958418 0Z" fill="#FFE585" p-id="1703"></path><path d="M547.505435 24.521396c-4.208539 0-8.421187 0.073978-12.600957 0.189055 223.681362 6.374456 403.041552 189.688371 403.041552 414.910946 0 229.254388-185.845613 415.100001-415.100001 415.100001-229.246168 0-415.100001-185.845613-415.100001-415.100001 0-36.10548 4.619529-71.138276 13.2832-104.539442a447.301075 447.301075 0 0 0-21.503002 137.41865c0 247.41193 200.575499 447.979209 447.979209 447.979209 247.41193 0 447.979209-200.567279 447.979209-447.979209s-200.567279-447.979209-447.979209-447.979209z" fill="#FF9900" opacity=".24" p-id="1704"></path><path d="M437.762858 1024h197.275248a16.439604 16.439604 0 0 0 0-32.879208h-197.275248a16.439604 16.439604 0 0 0 0 32.879208z" fill="#6E6E96" opacity=".29" p-id="1705"></path><path d="M708.465598 1024h57.538614a16.439604 16.439604 0 0 0 0-32.879208h-57.538614a16.439604 16.439604 0 0 0 0 32.879208zM359.124012 991.120792h-45.208911a16.439604 16.439604 0 0 0 0 32.879208h45.208911a16.439604 16.439604 0 0 0 0-32.879208z" fill="#6E6E96" opacity=".17" p-id="1706"></path><path d="M125.961109 487.103083c0-234.930161 190.444593-425.374754 425.374753-425.374754 229.833884 0 417.060424 182.286439 425.074731 410.15579 0.180836-5.182585 0.300023-10.3775 0.300023-15.605294 0-247.40782-200.575499-447.979209-447.979209-447.979209-247.41193 0-447.979209 200.571389-447.979209 447.979209 0 205.947139 138.980412 379.413731 328.282452 431.786199-164.942657-58.54965-283.073541-215.942418-283.073541-400.961941z" fill="#FFEFB5" p-id="1707"></path><path d="M741.624279 846.73175c-45.089724 23.66892-93.796161 39.03584-144.775373 45.68155a431.157384 431.157384 0 0 1-295.15254-68.840842C215.746006 766.222899 153.180983 680.132803 125.533679 581.162277a16.439604 16.439604 0 1 0-31.666787 8.848617c29.763903 106.540964 97.092301 199.206901 189.581513 260.917065a464.073581 464.073581 0 0 0 317.654249 74.093295c54.842519-7.151228 107.260196-23.697689 155.802237-49.174965a16.443714 16.443714 0 0 0-15.280612-29.114539zM267.612957 130.577391c62.203352-51.04497 137.467969-83.546068 217.660357-93.997546 114.300457-14.898391 227.565218 15.601184 318.924208 85.888711 91.358989 70.287527 149.88398 171.941818 164.78237 286.242275 8.749979 67.081804 2.038511 133.27998-19.945349 196.749181a16.439604 16.439604 0 1 0 31.066741 10.763831c23.66892-68.331214 30.898236-139.580458 21.486563-211.762649-16.036834-123.009337-79.016957-232.410792-177.334009-308.05352C725.928567 20.764946 604.037123-12.060833 481.027786 3.976c-86.295591 11.244689-167.30174 46.236386-234.264357 101.181653a16.439604 16.439604 0 0 0 20.849528 25.419738z" fill="#6E6E96" p-id="1708"></path><path d="M464.062115 264.917725m-36.989109 0a36.989109 36.989109 0 1 0 73.978218 0 36.989109 36.989109 0 1 0-73.978218 0Z" fill="#6E6E96" p-id="1709"></path><path d="M698.671703 365.762366m-36.989109 0a36.989109 36.989109 0 1 0 73.978218 0 36.989109 36.989109 0 1 0-73.978218 0Z" fill="#6E6E96" p-id="1710"></path><path d="M444.74147 597.059374a35.27939 35.27939 0 0 1-17.85341-20.500186 35.27117 35.27117 0 0 1 1.870005-27.108907 35.26706 35.26706 0 0 1 20.491967-17.85341 35.27117 35.27117 0 0 1 27.117126 1.865895 35.27939 35.27939 0 0 1 17.8493 20.491966 16.443714 16.443714 0 0 0 31.16949-10.472027 67.948993 67.948993 0 0 0-34.379322-39.45916 67.953103 67.953103 0 0 0-52.224512-3.596163 67.936664 67.936664 0 0 0-39.46738 34.383432 67.907894 67.907894 0 0 0-3.596163 52.208072 67.920224 67.920224 0 0 0 34.383432 39.471489 16.439604 16.439604 0 1 0 14.639467-29.431001z" fill="#6E6E96" p-id="1711"></path><path d="M420.308109 688.775925a35.254731 35.254731 0 0 1-27.104797-1.857675c-8.495165-4.224978-14.836743-11.503613-17.85752-20.491967s-2.354973-18.617852 1.865895-27.113017a35.27939 35.27939 0 0 1 20.487856-17.857519 35.316379 35.316379 0 0 1 27.121237 1.865895 16.439604 16.439604 0 0 0 14.639467-29.443331 67.940773 67.940773 0 0 0-52.228622-3.587944 67.936664 67.936664 0 0 0-39.459159 34.383432 67.932554 67.932554 0 0 0-3.596163 52.216292 67.936664 67.936664 0 0 0 34.383431 39.46738 67.928444 67.928444 0 0 0 52.224512 3.587943 16.439604 16.439604 0 0 0-10.476137-31.169489z" fill="#6E6E96" p-id="1712"></path><path d="M301.030562 224.805091c-29.241946-9.933631-59.416839-5.83195-85.272226 8.745869-9.321255-25.522485-28.189811-47.300851-54.435639-56.215225-48.636568-16.525912-104.116122 17.327343-120.050208 64.237752-40.942834 120.502297 89.423226 249.988838 89.423226 249.988838l3.571504-7.401931-1.015146 8.28145s182.902924-23.064764 223.841648-143.562952c15.934086-46.90219-7.430701-107.547889-56.063159-124.073801z" fill="#FF94B3" p-id="1713"></path><path d="M306.320004 209.236786c-32.558636-11.059744-67.587322-7.512899-98.633514 9.991169a16.435494 16.435494 0 0 1 23.516854 8.680111c-11.709108-32.069558-35.254731-56.174127-64.591204-66.140636-25.419738-8.639012-53.839703-6.288149-80.019773 6.61283-28.444625 14.022982-51.205257 39.405731-60.888183 67.903785-43.741676 128.742649 87.783375 261.356824 93.40572 266.942179a16.435494 16.435494 0 0 0 26.393784-4.516781l3.571504-7.401931a16.439604 16.439604 0 0 1-31.12017-9.14864l-1.015146 8.28145a16.431384 16.431384 0 0 0 18.371258 18.309609c7.88279-0.994596 193.605106-25.834838 237.350892-154.585706 19.850822-58.442792-11.146052-126.165741-66.342022-144.927439z m35.205412 134.356774c-37.108296 109.228839-208.614465 132.318263-210.344733 132.540197a16.423164 16.423164 0 0 1 18.383587 18.309609l1.015146-8.281451a16.443714 16.443714 0 0 0-31.12017-9.148639l-3.571504 7.401932a16.439604 16.439604 0 0 1 26.393784-4.520892c-1.220641-1.216531-122.561358-123.786108-85.444842-233.039606 6.937513-20.426208 23.496304-38.735817 44.288293-48.98591 18.305499-9.021233 37.802869-10.78849 54.908278-4.97298 19.867261 6.748457 36.006843 23.619601 44.284183 46.289815a16.431384 16.431384 0 0 0 23.516853 8.680111c22.789401-12.847551 48.328326-15.510766 71.910938-7.50057 41.481231 14.10518 58.381144 66.128307 45.780187 103.228384z" fill="#6E6E96" p-id="1714"></path><path d="M185.254651 222.828229a105.225795 105.225795 0 0 1 10.270642-5.318212c-10.299412-16.793055-25.506046-30.240652-44.641744-36.594559 15.798459 9.424003 27.589765 24.605977 34.371102 41.912771z m100.376112 0.361671a98.658174 98.658174 0 0 0-8.589693-2.252226c32.291492 20.265922 47.181663 64.944656 35.813677 101.156994-33.799826 107.605428-195.372364 131.792195-195.372364 131.792195l0.731563-7.344393-3.000228 6.63338S52.397991 393.598725 31.466265 319.608177c16.049163 89.328698 95.740144 164.901558 95.740144 164.901558l3.279701-7.233425-0.797321 8.001977s176.03939-26.365015 212.855883-143.591721c14.323005-45.628121-9.596619-103.635264-56.913909-118.496666z" fill="#6E6E96" opacity=".15" p-id="1715"></path><path d="M927.901432 667.918177c-19.431612-6.592281-39.471489-3.871527-56.650876 5.803181-6.189511-16.953342-18.737039-31.424303-36.167128-37.342561-32.307932-10.981655-69.169634 11.515943-79.748519 42.685432-27.203435 80.052652 59.404509 166.07288 59.404509 166.072879l2.371412-4.915441-0.674023 5.503157s121.501003-15.325821 148.704438-95.374362c10.591215-31.165379-4.931881-71.450629-37.239813-82.432285z" fill="#FF94B3" p-id="1716"></path><path d="M933.186764 652.349872c-23.134633-7.849911-47.995424-5.346981-69.999833 7.048481a16.439604 16.439604 0 0 1 23.512743 8.68422c-8.351319-22.875709-25.238902-40.108524-46.322694-47.267971-18.27673-6.21417-38.653619-4.55377-57.374218 4.672957-20.479637 10.093917-36.236997 27.696623-43.232049 48.291337-30.158454 88.745092 59.552465 179.212233 63.391113 183.022112a16.431384 16.431384 0 0 0 26.389675-4.520892l2.371413-4.915441a16.439604 16.439604 0 0 1-31.124281-9.14042l-0.674023 5.503157a16.439604 16.439604 0 0 0 18.375367 18.309609c5.375751-0.678134 132.047009-17.631475 162.209573-106.397117 14.138059-41.612748-8.063626-89.875315-47.522786-103.290032z m16.390286 92.711147c-23.533293 69.255942-134.09785 84.211871-135.211633 84.355718a16.419054 16.419054 0 0 1 14.384653 5.41685c3.123525 3.522185 4.57843 8.219802 4.011263 12.892759l0.674024-5.503157a16.443714 16.443714 0 0 0-31.12428-9.14042l-2.371413 4.915441a16.427274 16.427274 0 0 1 26.389674-4.520891c-0.776771-0.776771-78.963528-79.855376-55.422015-149.119538 4.151-12.222846 14.10518-23.204501 26.632159-29.377572 10.837809-5.342871 22.296213-6.419665 32.262723-3.028997 11.61047 3.945505 21.092012 13.936674 26.011563 27.41715a16.451934 16.451934 0 0 0 23.512744 8.68422c13.755839-7.751273 29.135088-9.366464 43.301917-4.55788 24.162108 8.207472 34.334113 39.84138 26.948621 61.566317z" fill="#6E6E96" p-id="1717"></path><path d="M850.988744 666.611229c2.219347-1.323388 4.504451-2.48649 6.818326-3.534515-6.838875-11.158381-16.945122-20.097416-29.652936-24.314174 10.496687 6.263489 18.326049 16.345076 22.83461 27.848689z m66.683144 0.234264a61.336163 61.336163 0 0 0-5.704542-1.487784c21.453683 13.451706 31.346215 43.141631 23.792216 67.205101-22.460609 71.483508-129.798893 87.557331-129.798893 87.557331l0.480858-4.882562-1.989192 4.409923s-41.731935-39.586566-55.639839-88.740982c10.665193 59.342861 63.608938 109.545301 63.608937 109.545301l2.174138-4.796254-0.530177 5.314102s116.951343-17.520508 141.405254-95.399022c9.526751-30.31874-6.362127-68.853171-37.79876-78.725154z" fill="#6E6E96" opacity=".15" p-id="1718"></path></svg>