<?xml version="1.0" standalone="no"?><!DOCTYPE svg PUBLIC "-//W3C//DTD SVG 1.1//EN" "http://www.w3.org/Graphics/SVG/1.1/DTD/svg11.dtd"><svg t="1638270693579" class="icon" viewBox="0 0 1024 1024" version="1.1" xmlns="http://www.w3.org/2000/svg" p-id="2292" xmlns:xlink="http://www.w3.org/1999/xlink" width="200" height="200"><defs><style type="text/css"></style></defs><path d="M739.2 287c12.3 12.3 12.3 32.3 0 44.6L331.4 739.4c-12.3 12.3-32.3 12.3-44.6 0-12.3-12.3-12.3-32.3 0-44.6L694.6 287c12.3-12.3 32.3-12.3 44.6 0z" fill="#000000" p-id="2293"></path><path d="M286.8 287c12.3-12.3 32.3-12.3 44.6 0l407.8 407.8c12.3 12.3 12.3 32.3 0 44.6-12.3 12.3-32.3 12.3-44.6 0L286.8 331.6c-12.3-12.3-12.3-32.3 0-44.6z" fill="#000000" p-id="2294"></path></svg>