<?xml version="1.0" standalone="no"?><!DOCTYPE svg PUBLIC "-//W3C//DTD SVG 1.1//EN" "http://www.w3.org/Graphics/SVG/1.1/DTD/svg11.dtd"><svg t="1637064604172" class="icon" viewBox="0 0 1024 1024" version="1.1" xmlns="http://www.w3.org/2000/svg" p-id="1853" xmlns:xlink="http://www.w3.org/1999/xlink" width="200" height="200"><defs><style type="text/css"></style></defs><path d="M512 464.455014m-448.014129 0a448.014129 448.014129 0 1 0 896.028258 0 448.014129 448.014129 0 1 0-896.028258 0Z" fill="#FFE585" p-id="1854"></path><path d="M412.803918 1024h197.290625a16.440885 16.440885 0 0 0 0-32.881771h-197.290625a16.440885 16.440885 0 0 0 0 32.881771z" fill="#6E6E96" opacity=".29" p-id="1855"></path><path d="M683.527758 1024h57.543099a16.440885 16.440885 0 0 0 0-32.881771h-57.543099a16.440885 16.440885 0 0 0 0 32.881771zM334.158942 991.118229h-45.212435a16.440885 16.440885 0 0 0 0 32.881771h45.212435a16.440885 16.440885 0 0 0 0-32.881771z" fill="#6E6E96" opacity=".17" p-id="1856"></path><path d="M522.555048 24.443486c-4.217087 0-8.421844 0.078094-12.614269 0.193181 223.698798 6.374953 403.085299 189.699047 403.085299 414.939177 0 229.272258-185.8601 415.132358-415.132358 415.132358s-415.132358-185.8601-415.132358-415.132358c0-36.104184 4.619889-71.143822 13.284236-104.54759a447.586666 447.586666 0 0 0-21.504678 137.429361c0 247.431216 200.582913 448.014129 448.014128 448.014129s448.014129-200.582913 448.014129-448.014129-200.578803-448.014129-448.014129-448.014129z" fill="#FF9900" opacity=".24" p-id="1857"></path><path d="M100.977863 487.061232C100.977863 252.112758 291.437301 61.65332 526.385775 61.65332c229.851799 0 417.092934 182.300648 425.107865 410.187762 0.18085-5.182989 0.300046-10.378309 0.300046-15.60651C951.793686 208.807466 751.210773 8.220443 503.779557 8.220443S55.765428 208.807466 55.765428 456.234572c0 205.959082 138.999466 379.439196 328.308042 431.819856C219.117956 829.500215 100.977863 672.095177 100.977863 487.061232z" fill="#FFEFB5" p-id="1858"></path><path d="M652.105116 872.784956C607.135184 888.206507 559.995055 896.028258 512 896.028258 274.030514 896.028258 80.426757 702.428611 80.426757 464.455014 80.426757 226.485528 274.030514 32.881771 512 32.881771s431.573243 193.603757 431.573243 431.573243c0 91.316788-28.163237 178.585008-81.444036 252.375813a16.440885 16.440885 0 0 0 26.658896 19.252277C946.138022 656.653076 976.455014 562.726297 976.455014 464.455014 976.455014 208.355341 768.103783 0 512 0S47.544986 208.355341 47.544986 464.455014s208.351231 464.455014 464.455014 464.455015c51.632601 0 102.356843-8.421844 150.77525-25.027138a16.432665 16.432665 0 0 0 10.2139-20.884035 16.432665 16.432665 0 0 0-20.884034-10.2139z" fill="#6E6E96" p-id="1859"></path><path d="M242.509226 467.463696c1.282389 1.533113 31.973412 37.550982 78.246284 39.585542 30.004616 1.323491 58.846039-11.640147 85.730997-38.520994a16.440885 16.440885 0 0 0-23.251522-23.251523c-20.004447 20.008558-40.452799 29.741562-60.773733 28.935959-31.706248-1.261838-54.563189-27.653569-54.789251-27.916624l0.045213 0.053433a16.440885 16.440885 0 0 0-25.207988 21.114207zM587.75549 467.463696c1.286499 1.533113 31.973412 37.550982 78.246284 39.585542 30.004616 1.323491 58.846039-11.640147 85.726887-38.520994a16.440885 16.440885 0 1 0-23.247412-23.251523c-20.004447 20.008558-40.456909 29.741562-60.773733 28.935959-31.710358-1.261838-54.563189-27.653569-54.789251-27.916624l0.045213 0.053433a16.444996 16.444996 0 0 0-25.207988 21.114207z" fill="#6E6E96" p-id="1860"></path><path d="M614.587015 756.408148c0-52.610833-51.028398-95.262601-113.972328-95.2626S386.638248 703.797315 386.638248 756.408148h227.948767z" fill="#C7A17B" p-id="1861"></path><path d="M631.027901 756.408148c0-30.399197-13.950091-58.804937-39.281386-79.972577-24.476368-20.464792-56.844361-31.730909-91.131828-31.730909-34.291577 0-66.65546 11.266117-91.135939 31.730909-25.331294 21.16764-39.281386 49.57338-39.281385 79.972577a16.440885 16.440885 0 0 0 16.440885 16.440886h227.948767a16.440885 16.440885 0 0 0 16.440886-16.440886z m-227.948767 0c0-43.461481 43.753306-78.821715 97.535553-78.821715 53.778136 0 97.531443 35.360234 97.531443 78.821715a16.440885 16.440885 0 0 1 16.440885-16.440885H386.638248a16.440885 16.440885 0 0 1 16.440886 16.440885z" fill="#6E6E96" p-id="1862"></path><path d="M681.369892 698.392374c-25.775198-74.760816-73.305798-117.239954-73.305798-117.239955s308.652963 151.067076 201.852971 257.858848c-83.606013 65.451165-98.23018-52.713589-128.547173-140.618893z" fill="#89E0F5" p-id="1863"></path><path d="M696.910639 693.036755c-26.860297-77.913356-75.821254-122.291416-77.888695-124.141016a16.440885 16.440885 0 0 1-18.18773 27.024706c55.594854 27.234327 202.494166 113.548975 214.368596 184.914749 2.844273 17.098521-2.683975 32.326891-16.909451 46.552367 0.468565-0.468565 0.965902-0.912469 1.4879-1.319381-16.173721 12.655372-29.092147 17.571196-38.410019 14.603616-21.829386-6.954495-36.807032-57.201951-50.021394-101.534798-4.554125-15.306464-9.27677-31.139037-14.439207-46.100243z m124.634242 157.598218c21.973243-21.969133 30.748566-47.275766 26.095796-75.217051-17.094411-102.599346-223.567271-204.738347-232.342594-209.033528a16.440885 16.440885 0 0 0-18.187729 27.024705c0.423353 0.37814 44.780862 40.896703 68.722901 110.343003 4.932266 14.307681 9.548044 29.799105 14.015855 44.776752 17.049198 57.206061 33.153046 111.239031 71.546623 123.47105 20.592209 6.564024 43.054569 0.00822 68.661248-20.04144 0.517888-0.411022 1.015225-0.850816 1.4879-1.323491z" fill="#6E6E96" p-id="1864"></path></svg>