<?xml version="1.0" standalone="no"?><!DOCTYPE svg PUBLIC "-//W3C//DTD SVG 1.1//EN" "http://www.w3.org/Graphics/SVG/1.1/DTD/svg11.dtd"><svg t="1637064565375" class="icon" viewBox="0 0 1024 1024" version="1.1" xmlns="http://www.w3.org/2000/svg" p-id="2060" xmlns:xlink="http://www.w3.org/1999/xlink" width="200" height="200"><defs><style type="text/css"></style></defs><path d="M934.144 503.6544c0-231.5264-187.6992-419.2256-419.2256-419.2256S95.6928 272.128 95.6928 503.6544s187.6992 419.2256 419.2256 419.2256h270.08c12.544 0 22.7328-10.1888 22.7328-22.7328v-96.6144c77.9776-76.0832 126.4128-182.272 126.4128-299.8784z" fill="#DB90F6" p-id="2061"></path><path d="M514.9184 185.9584c-214.3232 0-390.9632 160.8704-416.0512 368.4864 25.088 207.5648 201.728 368.4864 416.0512 368.4864h270.08c12.544 0 22.7328-10.1888 22.7328-22.7328v-96.6144c66.56-64.9728 111.5136-151.9616 123.2384-249.1392-25.088-207.616-201.728-368.4864-416.0512-368.4864z" fill="#D186F7" p-id="2062"></path><path d="M514.9184 287.488c-196.5056 0-361.3696 135.2192-406.784 317.696 45.4144 182.4768 210.2784 317.696 406.784 317.696h270.08c12.544 0 22.7328-10.1888 22.7328-22.7328v-96.6144c54.7328-53.4528 94.8736-121.8048 113.9712-198.5024-45.4656-182.3744-210.2784-317.5424-406.784-317.5424z" fill="#C276F6" p-id="2063"></path><path d="M514.9184 388.9664c-177.8176 0-329.6256 110.7456-390.6048 266.9568 60.928 156.2112 212.7872 266.9568 390.6048 266.9568h270.08c12.544 0 22.7328-10.1888 22.7328-22.7328v-96.6144a419.2256 419.2256 0 0 0 97.7408-147.6608c-60.928-156.16-212.7872-266.9056-390.5536-266.9056z" fill="#AF64F6" p-id="2064"></path><path d="M514.9184 490.496c-157.8496 0-295.2704 87.296-366.7968 216.2176 71.5264 128.9216 208.9472 216.2176 366.7968 216.2176h270.08c12.544 0 22.7328-10.1888 22.7328-22.7328v-96.6144a422.28224 422.28224 0 0 0 73.984-96.8704c-71.5264-128.9216-208.9472-216.2176-366.7968-216.2176z" fill="#A25BF4" p-id="2065"></path><path d="M514.9184 679.3216c-118.8864 0-215.6032-96.7168-215.6032-215.6032 0-22.6304 18.3296-40.96 40.96-40.96s40.96 18.3296 40.96 40.96c0 73.728 59.9552 133.6832 133.6832 133.6832s133.6832-59.9552 133.6832-133.6832c0-22.6304 18.3296-40.96 40.96-40.96s40.96 18.3296 40.96 40.96c0 118.8864-96.7168 215.6032-215.6032 215.6032z" fill="#FFFFFF" p-id="2066"></path></svg>