<?xml version="1.0" standalone="no"?><!DOCTYPE svg PUBLIC "-//W3C//DTD SVG 1.1//EN" "http://www.w3.org/Graphics/SVG/1.1/DTD/svg11.dtd"><svg t="1637064550692" class="icon" viewBox="0 0 1024 1024" version="1.1" xmlns="http://www.w3.org/2000/svg" p-id="1344" xmlns:xlink="http://www.w3.org/1999/xlink" width="200" height="200"><defs><style type="text/css"></style></defs><path d="M882.3296 231.5776c-99.4304-99.4304-260.608-99.4304-360.0384 0l-6.8096 6.8096-6.8096-6.8096c-99.4304-99.4304-260.608-99.4304-360.0384 0-99.4304 99.4304-99.4304 260.608 0 360.0384l276.4288 276.4288c49.92 49.92 130.9184 49.92 180.8384 0L875.52 598.4256l6.8096-6.8096c99.4304-99.3792 99.4304-260.608 0-360.0384z" fill="#F0606D" p-id="1345"></path><path d="M518.7584 350.6688l-3.2768 3.2768-3.2768-3.2768C413.5424 251.9552 252.5696 246.9376 152.064 343.808a253.5936 253.5936 0 0 0-71.3216 125.5936 253.31712 253.31712 0 0 0 67.8912 122.2656l276.4288 276.4288c49.92 49.92 130.9184 49.92 180.8384 0L875.52 598.4256l6.8096-6.8096a253.31712 253.31712 0 0 0 67.8912-122.2656 253.5936 253.5936 0 0 0-71.3216-125.5936c-100.5056-96.8192-261.4272-91.8016-360.1408 6.912z" fill="#EB545E" p-id="1346"></path><path d="M518.8096 466.176l-3.2768 3.2768-3.2768-3.2768c-99.4304-99.4304-265.3184-102.6048-364.3392-2.7648a253.71136 253.71136 0 0 0-46.08 63.744 253.7984 253.7984 0 0 0 46.848 64.512l276.4288 276.4288c49.92 49.92 130.9184 49.92 180.8384 0L875.52 598.4256l6.8096-6.8096c19.456-19.456 35.0208-41.2672 46.848-64.512-11.6736-22.9376-27.0336-44.544-46.1312-63.7952-99.0208-99.7376-264.8576-96.5632-364.2368 2.8672z" fill="#E6494E" p-id="1347"></path><path d="M522.2912 578.2016l-6.8096 6.8096-6.8096-6.8096c-99.4304-99.4304-260.608-99.4304-360.0384 0-2.2016 2.2016-4.3008 4.4544-6.4 6.7072 2.0992 2.2528 4.1984 4.5056 6.4 6.7072l276.4288 276.4288c49.92 49.92 130.9184 49.92 180.8384 0L875.52 598.4256l6.8096-6.8096c2.2016-2.2016 4.3008-4.4544 6.4-6.7072-2.0992-2.2528-4.1984-4.5056-6.4-6.7072-99.4304-99.4304-260.608-99.4304-360.0384 0z" fill="#E44447" p-id="1348"></path><path d="M522.2912 693.7088l-6.8096 6.8096-6.8096-6.8096c-81.664-81.664-205.056-96.2048-301.6192-43.6736l218.0096 218.0096c49.92 49.92 130.9184 49.92 180.8384 0l218.0096-218.0096c-96.5632-52.5312-219.904-37.9904-301.6192 43.6736z" fill="#E93838" p-id="1349"></path><path d="M741.7856 580.1984c-8.0384 0-16.0768-2.6624-22.7328-8.1408a35.83488 35.83488 0 0 1-4.9152-50.432c0.3072-0.4096 32.6656-39.7312 54.1184-67.4816 30.6176-46.5408-15.872-99.9424-17.92-102.1952-13.1072-14.7456-11.8784-37.376 2.816-50.5344 14.6944-13.1584 37.1712-12.0832 50.432 2.56 30.3104 33.4336 74.1888 116.48 23.3984 191.232-0.4096 0.6144-0.8192 1.1776-1.28 1.792-22.1184 28.672-54.8864 68.4544-56.2688 70.144a35.66592 35.66592 0 0 1-27.648 13.056z m55.552-105.1648h0.0512-0.0512z" fill="#FFFFFF" p-id="1350"></path></svg>