<?xml version="1.0" standalone="no"?><!DOCTYPE svg PUBLIC "-//W3C//DTD SVG 1.1//EN" "http://www.w3.org/Graphics/SVG/1.1/DTD/svg11.dtd"><svg t="1637064554361" class="icon" viewBox="0 0 1024 1024" version="1.1" xmlns="http://www.w3.org/2000/svg" p-id="1487" xmlns:xlink="http://www.w3.org/1999/xlink" width="200" height="200"><defs><style type="text/css"></style></defs><path d="M573.3376 123.7504l85.4528 173.1584a66.816 66.816 0 0 0 50.2784 36.5568l191.1296 27.7504c54.784 7.936 76.6464 75.264 37.0176 113.92l-138.2912 134.8096c-15.7184 15.36-22.9376 37.4272-19.2 59.136l32.6656 190.3104c9.3696 54.5792-47.9232 96.1536-96.9216 70.4l-170.9056-89.856c-19.456-10.24-42.7008-10.24-62.1568 0L311.4496 929.792c-48.9984 25.7536-106.24-15.872-96.9216-70.4l32.6656-190.3104c3.7376-21.6576-3.4816-43.776-19.2-59.136L89.7024 475.136c-39.6288-38.656-17.7664-105.9328 37.0176-113.92l191.1296-27.7504a66.816 66.816 0 0 0 50.2784-36.5568l85.4528-173.1584c24.4736-49.6128 95.232-49.6128 119.7568 0z" fill="#F0606D" p-id="1488"></path><path d="M942.6432 469.0432c-9.8816-12.4416-24.32-21.6576-42.4448-24.32l-191.0784-27.7504a66.816 66.816 0 0 1-50.2784-36.5568l-85.4528-173.1584c-24.4736-49.6128-95.2832-49.6128-119.7568 0L368.0768 380.416a66.816 66.816 0 0 1-50.2784 36.5568l-191.0784 27.7504c-18.1248 2.6112-32.5632 11.8272-42.4448 24.32 1.6896 2.0992 3.4304 4.1472 5.4272 6.0928l138.2912 134.8096c15.7184 15.36 22.9376 37.4272 19.2 59.136l-7.0144 40.8576c6.8608 12.9024 9.5232 27.8528 7.0144 42.6496l-25.7024 149.8112c16.384 30.0544 55.2448 45.6704 89.9584 27.392l170.9056-89.856c19.456-10.24 42.7008-10.24 62.1568 0l170.9056 89.856c34.7136 18.2784 73.5744 2.6624 89.9584-27.392l-25.7024-149.8112c-2.56-14.7968 0.1024-29.7472 7.0144-42.6496l-7.0144-40.8576c-3.7376-21.6576 3.4816-43.776 19.2-59.136l138.2912-134.8096c2.048-1.9456 3.7888-4.0448 5.4784-6.0928z" fill="#EB545E" p-id="1489"></path><path d="M798.3104 777.5744l-18.6368-108.544c-3.7376-21.6576 3.4816-43.776 19.2-59.136l86.1184-83.9168-175.9232-25.5488a66.816 66.816 0 0 1-50.2784-36.5568l-85.4528-173.1584c-24.4736-49.664-95.2832-49.664-119.7568 0l-85.504 173.2096a66.816 66.816 0 0 1-50.2784 36.5568l-175.9232 25.5488 86.1184 83.9168c15.7184 15.36 22.9376 37.4272 19.2 59.136l-18.6368 108.544a66.816 66.816 0 0 1 18.6368 58.4704l-14.0288 81.8688c19.4048 19.2512 50.2272 26.6752 78.2848 11.8784l170.9056-89.856c19.456-10.24 42.7008-10.24 62.1568 0l170.9056 89.856c28.1088 14.7456 58.88 7.3728 78.2848-11.8784l-14.0288-81.8688c-3.6352-21.4528 3.328-43.2128 18.6368-58.5216z" fill="#E6494E" p-id="1490"></path><path d="M798.9248 609.9456l11.5712-11.264-101.376-14.7456a66.816 66.816 0 0 1-50.2784-36.5568l-85.4528-173.1584c-24.4736-49.6128-95.2832-49.6128-119.7568 0l-85.4528 173.1584a66.816 66.816 0 0 1-50.2784 36.5568l-101.376 14.7456 11.5712 11.264c15.7184 15.36 22.9376 37.4272 19.2 59.136l-30.8736 180.0192 11.6736 11.3664c15.7184 15.36 22.9376 37.4272 19.2 59.136l-1.536 8.192c18.7392 11.4176 43.1104 13.8752 65.6896 1.9968l170.9056-89.856c19.456-10.24 42.7008-10.24 62.1568 0l170.9056 89.856c22.5792 11.8784 46.8992 9.4208 65.6896-1.9968l-1.4336-8.2432c-3.7376-21.6576 3.4816-43.776 19.2-59.136l11.6736-11.3664-30.8736-180.0192c-3.6864-21.6576 3.4816-43.7248 19.2512-59.0848z" fill="#E44447" p-id="1491"></path><path d="M311.4496 929.792l170.9056-89.856c19.456-10.24 42.7008-10.24 62.1568 0l170.9056 89.856c48.9984 25.7536 106.24-15.8208 96.9216-70.4l-31.1296-181.4528-72.1408-10.496a66.816 66.816 0 0 1-50.2784-36.5568L573.3376 457.728c-24.4736-49.6128-95.2832-49.6128-119.7568 0L368.128 630.8864a66.816 66.816 0 0 1-50.2784 36.5568l-72.1408 10.496-31.1296 181.4528c-9.4208 54.528 47.872 96.1536 96.8704 70.4z" fill="#E93838" p-id="1492"></path><path d="M513.4336 694.784c-70.5024 0-133.5296-44.6976-156.8256-111.2064-7.4752-21.3504 3.7888-44.6976 25.1392-52.1728 21.3504-7.4752 44.6976 3.7888 52.1728 25.1392 11.776 33.6896 43.7248 56.3712 79.4624 56.3712 34.7136 0 66.3552-21.8112 78.6944-54.2208 8.0384-21.1456 31.744-31.744 52.8384-23.7056 21.1456 8.0384 31.744 31.744 23.7056 52.8384-24.32 64-86.6816 106.9568-155.1872 106.9568z" fill="#FFFFFF" p-id="1493"></path></svg>