<?xml version="1.0" standalone="no"?><!DOCTYPE svg PUBLIC "-//W3C//DTD SVG 1.1//EN" "http://www.w3.org/Graphics/SVG/1.1/DTD/svg11.dtd"><svg t="1637064667331" class="icon" viewBox="0 0 1024 1024" version="1.1" xmlns="http://www.w3.org/2000/svg" p-id="1252" xmlns:xlink="http://www.w3.org/1999/xlink" width="200" height="200"><defs><style type="text/css"></style></defs><path d="M740.76 148.01l-4.11 3.87-57.72 57.67L814.7 345.31l57.76-57.71c37.5-37.5 37.5-98.23 0.05-135.69-36.18-36.17-94.02-37.48-131.75-3.9zM611 277.38L123.47 764.5l-0.07 90.25v45.15h136.16l487.21-486.75L611 277.38zM940.39 84.03c73.24 73.24 74.91 190.96 4.99 266.23l-5.05 5.24-544.9 544.4 543.97 0.03c26.51 0 48 21.49 48 48s-21.49 48-48 48l-660.78 0.02c-2.03 0.19-4.06 0.29-6.12 0.29l-181.15-0.09c-1.77 0-3.53-0.07-5.26-0.22l-10.69-0.01c-26.51 0-48-21.49-48-48v-128l0.03-0.99 0.04-67.71a63.984 63.984 0 0 1 18.77-45.24L668.8 83.97c75.02-74.96 196.6-74.93 271.59 0.06z" p-id="1253"></path></svg>