<?xml version="1.0" standalone="no"?><!DOCTYPE svg PUBLIC "-//W3C//DTD SVG 1.1//EN" "http://www.w3.org/Graphics/SVG/1.1/DTD/svg11.dtd"><svg t="1637064562699" class="icon" viewBox="0 0 1024 1024" version="1.1" xmlns="http://www.w3.org/2000/svg" p-id="1915" xmlns:xlink="http://www.w3.org/1999/xlink" width="200" height="200"><defs><style type="text/css"></style></defs><path d="M463.872 323.6352c0-107.776-87.3984-195.1744-195.1744-195.1744S73.5232 215.8592 73.5232 323.6352c0 78.7968 46.7456 146.6368 113.9712 177.4592v309.76c0 44.8512 36.352 81.2032 81.2032 81.2032s81.2032-36.352 81.2032-81.2032v-309.76C417.1264 470.3232 463.872 402.4832 463.872 323.6352z" fill="#F374C7" p-id="1916"></path><path d="M187.4944 501.1456v309.76c0 44.8512 36.352 81.2032 81.2032 81.2032s81.2032-36.352 81.2032-81.2032v-309.76C417.1264 470.3232 463.872 402.4832 463.872 323.6352c0-55.8592-23.5008-106.1888-61.0816-141.7216-126.0032 22.1696-239.0528 81.5616-327.6288 166.4512 8.6016 68.096 52.224 125.2352 112.3328 152.7808z" fill="#F064BA" p-id="1917"></path><path d="M840.3456 517.2224V152.2688c0-30.464-33.3824-51.4048-64.3072-40.3968l-191.8976 68.3008c-18.176 6.4512-30.1568 22.528-30.1568 40.3968v296.6528c-28.0576 5.7856-49.2032 30.6688-49.2032 60.4672v261.1712c0 34.0992 27.648 61.7472 61.7472 61.7472h261.1712c34.0992 0 61.7472-27.648 61.7472-61.7472v-261.1712c0.0512-29.7984-21.0432-54.6304-49.1008-60.4672z" fill="#F374C7" p-id="1918"></path><path d="M592.4864 177.2032l-8.3968 2.9696c-18.176 6.4512-30.1568 22.528-30.1568 40.3968v296.6528c-28.0576 5.7856-49.2032 30.6688-49.2032 60.4672v261.1712c0 34.0992 27.648 61.7472 61.7472 61.7472h261.1712c34.0992 0 61.7472-27.648 61.7472-61.7472v-261.1712c0-29.7984-21.0944-54.6816-49.2032-60.4672V262.9632c-73.9328-44.7488-157.9008-74.5472-247.7056-85.76z" fill="#F064BA" p-id="1919"></path><path d="M187.4944 501.1456v309.76c0 44.8512 36.352 81.2032 81.2032 81.2032s81.2032-36.352 81.2032-81.2032v-309.76C417.1264 470.3232 463.872 402.4832 463.872 323.6352c0-8.3456-0.5632-16.5376-1.5872-24.576-132.352 10.5472-253.2352 61.6448-350.1056 141.056 19.5072 26.1632 45.312 47.3088 75.3152 61.0304zM553.984 298.2912v218.9312c-28.0576 5.7856-49.2032 30.6688-49.2032 60.4672v261.1712c0 34.0992 27.648 61.7472 61.7472 61.7472h261.1712c34.0992 0 61.7472-27.648 61.7472-61.7472v-261.1712c0-29.7984-21.0944-54.6816-49.2032-60.4672v-129.536c-84.48-51.0464-181.9648-82.7904-286.2592-89.3952z" fill="#EE4FA8" p-id="1920"></path><path d="M187.4944 511.8464v299.1104c0 44.8512 36.352 81.2032 81.2032 81.2032s81.2032-36.352 81.2032-81.2032v-309.76a196.07552 196.07552 0 0 0 84.4288-74.4448 627.90144 627.90144 0 0 0-246.8352 85.0944zM553.984 423.0656v94.208c-28.0576 5.7856-49.2032 30.6688-49.2032 60.4672v261.1712c0 34.0992 27.648 61.7472 61.7472 61.7472h261.1712c34.0992 0 61.7472-27.648 61.7472-61.7472v-261.1712c0-29.7984-21.0944-54.6816-49.2032-60.4672v-4.7616c-84.48-51.0976-181.9648-82.8416-286.2592-89.4464z" fill="#EB3C99" p-id="1921"></path><path d="M187.4944 636.6208v174.336c0 44.8512 36.352 81.2032 81.2032 81.2032s81.2032-36.352 81.2032-81.2032V567.808c-57.8048 15.36-112.384 38.7072-162.4064 68.8128zM513.3824 546.3552s-0.0512 0 0 0a61.30688 61.30688 0 0 0-8.6016 31.3344v261.1712c0 34.0992 27.648 61.7472 61.7472 61.7472h261.1712c34.0992 0 61.7472-27.648 61.7472-61.7472V670.208c-105.1136-77.7728-235.2128-123.8528-376.064-123.8528z" fill="#E92385" p-id="1922"></path><path d="M796.5184 662.3744h-203.008c-22.6304 0-40.96-18.3296-40.96-40.96s18.3296-40.96 40.96-40.96h203.008c22.6304 0 40.96 18.3296 40.96 40.96s-18.3296 40.96-40.96 40.96z" fill="#FFFFFF" p-id="1923"></path></svg>