<?xml version="1.0" standalone="no"?><!DOCTYPE svg PUBLIC "-//W3C//DTD SVG 1.1//EN" "http://www.w3.org/Graphics/SVG/1.1/DTD/svg11.dtd"><svg t="1637064669890" class="icon" viewBox="0 0 1024 1024" version="1.1" xmlns="http://www.w3.org/2000/svg" p-id="1388" xmlns:xlink="http://www.w3.org/1999/xlink" width="200" height="200"><defs><style type="text/css"></style></defs><path d="M677.9 444.06c24.29 10.62 35.37 38.92 24.75 63.21C669.8 582.4 595.44 632 512 632s-157.8-49.6-190.65-124.73c-10.62-24.29 0.46-52.59 24.75-63.21 22.86-10 49.27-0.77 61.16 20.6l2.05 4.15C427.01 509.29 467.05 536 512 536c42.7 0 80.97-24.1 99.87-61.22l2.82-5.97c10.62-24.29 38.92-35.37 63.21-24.75zM512 104c-176.73 0-320 143.27-320 320s143.27 320 320 320 320-143.27 320-320-143.27-320-320-320z m0-96c229.75 0 416 186.25 416 416 0 152.8-82.38 286.36-205.15 358.68 85.33 32.48 162.42 84.6 225.13 152.84 17.94 19.52 16.66 49.88-2.86 67.82-19.52 17.94-49.88 16.66-67.82-2.86C783.91 898.86 652.74 840 512 840s-271.91 58.86-365.3 160.48c-17.94 19.52-48.3 20.8-67.82 2.86-19.52-17.94-20.8-48.3-2.86-67.82 62.7-68.23 139.78-120.34 225.13-152.85C178.38 710.36 96 576.8 96 424 96 194.25 282.25 8 512 8z" p-id="1389"></path></svg>